<svg height="512" viewBox="0 0 56.69 56.69" width="512" xmlns="http://www.w3.org/2000/svg"><path d="M46.005 41.676a4.475 4.475 0 01-3.182-1.318L28.345 25.879 13.868 40.357c-.849.85-1.979 1.318-3.182 1.318s-2.333-.468-3.183-1.318a4.505 4.505 0 010-6.363l17.66-17.661a4.466 4.466 0 013.181-1.318c1.201 0 2.332.468 3.182 1.318l17.66 17.661a4.465 4.465 0 011.318 3.182 4.472 4.472 0 01-1.318 3.182 4.47 4.47 0 01-3.181 1.318zm-17.66-18.625l15.892 15.893c.945.945 2.59.945 3.535 0 .473-.473.732-1.101.732-1.768s-.26-1.295-.732-1.768L30.067 17.704c-.945-.902-2.56-.887-3.489.043L8.917 35.408a2.502 2.502 0 000 3.535c.945.945 2.592.945 3.536 0z"/></svg>