<svg width="71" height="29" fill="none" xmlns="http://www.w3.org/2000/svg"><circle cx="14" cy="14.194" r="14" fill="#E3B873"/><path d="M8.4 8.994h11.2c.77 0 1.4.63 1.4 1.4v8.4c0 .77-.63 1.4-1.4 1.4H8.4c-.77 0-1.4-.63-1.4-1.4v-8.4c0-.77.63-1.4 1.4-1.4z" stroke="#fff" stroke-width="1.5" stroke-linecap="round" stroke-linejoin="round"/><path d="M21 10.395l-7 4.9-7-4.9" stroke="#fff" stroke-width="1.5" stroke-linecap="round" stroke-linejoin="round"/><circle cx="57" cy="14.194" r="14" fill="#E3B873"/><path d="M60 8.594h-6a3 3 0 00-3 3v6a3 3 0 003 3h6a3 3 0 003-3v-6a3 3 0 00-3-3z" stroke="#fff" stroke-width="1.5"/><path d="M59.4 14.216a2.4 2.4 0 11-4.747.704 2.4 2.4 0 014.747-.704z" stroke="#fff" stroke-width="1.5" stroke-linecap="round" stroke-linejoin="round"/></svg>